<svg xmlns="http://www.w3.org/2000/svg" xmlns:xlink="http://www.w3.org/1999/xlink" viewBox="0 0 320.22 112.42"><defs><style>.cls-1{fill:#fff;}.cls-2,.cls-3,.cls-4,.cls-5,.cls-6{fill:none;stroke-miterlimit:10;stroke-width:1.42px;}.cls-2{stroke:url(#linear-gradient);}.cls-3{stroke:url(#linear-gradient-2);}.cls-4{stroke:url(#linear-gradient-3);}.cls-5{stroke:url(#linear-gradient-4);}.cls-6{stroke:url(#linear-gradient-5);}</style><linearGradient id="linear-gradient" x1="-0.03" y1="132.51" x2="60.23" y2="132.51" gradientTransform="matrix(1, 0, 0, -1.06, 0, 227.05)" gradientUnits="userSpaceOnUse"><stop offset="0.01" stop-color="#fff"/><stop offset="0.12" stop-color="#fbfbfb" stop-opacity="0.99"/><stop offset="0.23" stop-color="#f0f0f0" stop-opacity="0.94"/><stop offset="0.34" stop-color="#ddd" stop-opacity="0.87"/><stop offset="0.44" stop-color="#c2c2c2" stop-opacity="0.76"/><stop offset="0.55" stop-color="#a0a0a0" stop-opacity="0.63"/><stop offset="0.65" stop-color="#767676" stop-opacity="0.46"/><stop offset="0.75" stop-color="#444" stop-opacity="0.27"/><stop offset="0.85" stop-color="#0b0b0b" stop-opacity="0.04"/><stop offset="0.87" stop-opacity="0"/></linearGradient><linearGradient id="linear-gradient-2" x1="68.65" y1="132.51" x2="118.19" y2="132.51" xlink:href="#linear-gradient"/><linearGradient id="linear-gradient-3" x1="128.82" y1="132.18" x2="189.97" y2="132.18" xlink:href="#linear-gradient"/><linearGradient id="linear-gradient-4" x1="203.51" y1="132.7" x2="254.67" y2="132.7" xlink:href="#linear-gradient"/><linearGradient id="linear-gradient-5" x1="266.86" y1="132.51" x2="320.22" y2="132.51" xlink:href="#linear-gradient"/></defs><g id="Layer_2" data-name="Layer 2"><g id="Layer_1-2" data-name="Layer 1"><path class="cls-1" d="M43.53,51h15.3L36.23,1.42H23.54L.87,51h15L19,44.08H40.38ZM23.7,33.66l3-6.73c.52-1.23,1-2.33,1.42-3.3s.81-1.91,1.17-2.83c.15-.41.28-.82.42-1.23.12.37.23.76.36,1.12.31.9.66,1.86,1.06,2.87s.89,2.14,1.45,3.37l3,6.73Z"/><path class="cls-1" d="M115.67,29.83a13,13,0,0,0-4.18-4.11A18.54,18.54,0,0,0,107.83,24a10.59,10.59,0,0,0,4.54-3.32,11.61,11.61,0,0,0,2.24-7.3,9.67,9.67,0,0,0-2.2-6.3,14.06,14.06,0,0,0-6.49-4.18A31.83,31.83,0,0,0,95.47,1.42H69.11V51H96.82a33.33,33.33,0,0,0,7.3-.81,22.94,22.94,0,0,0,6.59-2.55A13.39,13.39,0,0,0,115.46,43a13.85,13.85,0,0,0,1.77-7.26A10.86,10.86,0,0,0,115.67,29.83ZM83.28,13.46H93.77a9,9,0,0,1,4.36.89,2.81,2.81,0,0,1,1.59,2.59,3.16,3.16,0,0,1-.63,2,4.16,4.16,0,0,1-2,1.21,10.73,10.73,0,0,1-3.23.42H83.28Zm18.36,23.67a4.33,4.33,0,0,1-2,1.39,8.43,8.43,0,0,1-2.87.46H83.28V30.83H96.46a9.69,9.69,0,0,1,2.7.39,5.52,5.52,0,0,1,2.26,1.24,3,3,0,0,1,.93,2.33A3.73,3.73,0,0,1,101.64,37.13Z"/><path class="cls-1" d="M159.18,51.73a35.88,35.88,0,0,1-12.08-1.95,29.21,29.21,0,0,1-9.5-5.42,23.73,23.73,0,0,1-6.16-8.22,24.35,24.35,0,0,1-2.17-10.27,24.21,24.21,0,0,1,2.2-10.32,24.46,24.46,0,0,1,6.2-8.18A29.4,29.4,0,0,1,147.13,2a35.38,35.38,0,0,1,12-1.95,36.6,36.6,0,0,1,12.12,1.91,28.69,28.69,0,0,1,9.46,5.42A24,24,0,0,1,189,25.79a24.62,24.62,0,0,1-2.16,10.39,24.3,24.3,0,0,1-6.16,8.22,28.51,28.51,0,0,1-9.46,5.42A36.39,36.39,0,0,1,159.18,51.73Zm0-14.17a17.85,17.85,0,0,0,5.74-.89,13.41,13.41,0,0,0,4.5-2.48,11.71,11.71,0,0,0,2.94-3.72,10.53,10.53,0,0,0,0-9.21,11.71,11.71,0,0,0-2.94-3.72,13.49,13.49,0,0,0-4.54-2.48,18.83,18.83,0,0,0-11.44,0,15,15,0,0,0-4.57,2.44,10.56,10.56,0,0,0-3,3.72,11.09,11.09,0,0,0,0,9.29,10.56,10.56,0,0,0,3,3.72,14.8,14.8,0,0,0,4.57,2.44A17.85,17.85,0,0,0,159.18,37.56Z"/><path class="cls-1" d="M228.84,51.45a28.53,28.53,0,0,1-13-2.84A20.86,20.86,0,0,1,204,29.34V1.42h15.44V28.91a9.9,9.9,0,0,0,1.21,5,8.39,8.39,0,0,0,3.33,3.3,10,10,0,0,0,4.89,1.17,10.77,10.77,0,0,0,5.07-1.17,8.49,8.49,0,0,0,3.47-3.3,9.61,9.61,0,0,0,1.24-5V1.42h15.09V29.34a20.91,20.91,0,0,1-11.83,19.27A28.5,28.5,0,0,1,228.84,51.45Z"/><path class="cls-1" d="M285.46,51V14.46H267.32v-13h51.95v13h-18.5V51Z"/><path class="cls-2" d="M43.78,62.09h15.3l-22.6,48.25H23.79L1.12,62.09h15l3.12,6.75H40.63ZM24,79l3,6.54c.52,1.2,1,2.27,1.42,3.21s.81,1.86,1.17,2.76c.15.39.28.79.42,1.19.12-.36.23-.74.36-1.09.31-.87.66-1.8,1.06-2.79s.89-2.08,1.45-3.28l3-6.54Z"/><path class="cls-3" d="M115.92,82.7a12.82,12.82,0,0,1-4.18,4,18.38,18.38,0,0,1-3.66,1.66,10.6,10.6,0,0,1,4.54,3.23,11.08,11.08,0,0,1,2.24,7.1,9.26,9.26,0,0,1-2.2,6.13,14.09,14.09,0,0,1-6.49,4.07,32.73,32.73,0,0,1-10.45,1.45H69.36V62.09H97.07a33.93,33.93,0,0,1,7.3.79A23.73,23.73,0,0,1,111,65.36,12.51,12.51,0,0,1,117.48,77,10.32,10.32,0,0,1,115.92,82.7ZM83.53,98.62H94a9.29,9.29,0,0,0,4.36-.86A2.73,2.73,0,0,0,100,95.24a3.05,3.05,0,0,0-.63-2,4.2,4.2,0,0,0-2-1.17,11.09,11.09,0,0,0-3.23-.41H83.53Zm18.36-23a4.34,4.34,0,0,0-2-1.35,8.44,8.44,0,0,0-2.87-.44H83.53v7.92H96.71a9.67,9.67,0,0,0,2.7-.38,5.58,5.58,0,0,0,2.26-1.2,2.89,2.89,0,0,0,.93-2.28A3.54,3.54,0,0,0,101.89,75.6Z"/><path class="cls-4" d="M159.43,61.4a36.92,36.92,0,0,0-12.08,1.89,29.67,29.67,0,0,0-9.5,5.28,23.71,23.71,0,0,0-6.13,28,23.86,23.86,0,0,0,6.2,8,29.47,29.47,0,0,0,9.46,5.27,36.4,36.4,0,0,0,12,1.9,37.41,37.41,0,0,0,12.12-1.86,28.75,28.75,0,0,0,9.46-5.28,23.66,23.66,0,0,0,6.16-8,23.1,23.1,0,0,0,2.16-10,23.37,23.37,0,0,0-2.16-10.1,23.7,23.7,0,0,0-6.16-8,28.73,28.73,0,0,0-9.46-5.27A37.19,37.19,0,0,0,159.43,61.4Zm0,13.78a18.14,18.14,0,0,1,5.74.87,13.46,13.46,0,0,1,4.5,2.41,11.45,11.45,0,0,1,2.94,3.62,10,10,0,0,1,0,9,11.56,11.56,0,0,1-2.94,3.62,13.74,13.74,0,0,1-4.54,2.41,19.45,19.45,0,0,1-11.44,0,15.12,15.12,0,0,1-4.57-2.38,10.33,10.33,0,0,1-3-3.62,10.5,10.5,0,0,1,0-9,10.33,10.33,0,0,1,3-3.62,14.88,14.88,0,0,1,4.57-2.37A18.14,18.14,0,0,1,159.43,75.18Z"/><path class="cls-5" d="M229.09,61.67a29.18,29.18,0,0,0-13,2.76,21.13,21.13,0,0,0-8.76,7.65,20.19,20.19,0,0,0-3.11,11.1v27.16h15.44V83.59a9.45,9.45,0,0,1,1.21-4.82,8.3,8.3,0,0,1,3.33-3.21,10.32,10.32,0,0,1,4.89-1.13,11.12,11.12,0,0,1,5.07,1.13,8.41,8.41,0,0,1,3.47,3.21,9.18,9.18,0,0,1,1.24,4.82v26.75H254V83.18a20.27,20.27,0,0,0-3.11-11.1,21.2,21.2,0,0,0-8.72-7.65A29.15,29.15,0,0,0,229.09,61.67Z"/><path class="cls-6" d="M285.71,62.09V97.65H267.57v12.69h51.95V97.65H301V62.09Z"/></g></g></svg>