<svg xmlns="http://www.w3.org/2000/svg" xmlns:xlink="http://www.w3.org/1999/xlink" viewBox="0 0 955.89 678"><defs><style>.cls-1{fill:none;}.cls-2{fill:url(#linear-gradient);}.cls-3{clip-path:url(#clip-path);}.cls-4{fill:url(#linear-gradient-2);}.cls-5{fill:url(#linear-gradient-3);}.cls-6{fill:#fff;}</style><linearGradient id="linear-gradient" x1="468" x2="468" y2="676" gradientUnits="userSpaceOnUse"><stop offset="0.01" stop-color="#fff"/><stop offset="0.1" stop-color="#fffbfc"/><stop offset="0.19" stop-color="#fef0f3"/><stop offset="0.27" stop-color="#fcdde5"/><stop offset="0.36" stop-color="#f9c2d0"/><stop offset="0.44" stop-color="#f6a0b6"/><stop offset="0.52" stop-color="#f27796"/><stop offset="0.6" stop-color="#ee4872"/><stop offset="0.62" stop-color="#df436b"/><stop offset="0.68" stop-color="#b83858"/><stop offset="0.75" stop-color="#79253a"/><stop offset="0.83" stop-color="#230a11"/><stop offset="0.87"/></linearGradient><clipPath id="clip-path" transform="translate(9.71)"><path class="cls-1" d="M760.74,527.35a323.47,323.47,0,0,0,27.72-52.6q25.75-61.89,25.74-136.65,0-74-26.22-135.41A328.89,328.89,0,0,0,715,95.52Q668.28,49.84,605.34,24.91T468,0Q394.56,0,331.14,24.91T221,95.11q-46.74,45.28-73,107.17T121.8,338.93q0,73.94,25.74,135.82a324.26,324.26,0,0,0,27.72,52.6H0V676H418.26V526.78a191.63,191.63,0,0,1-26.56-8.42A181.82,181.82,0,0,1,289.18,417q-14.81-35.7-14.79-78.08t14.79-78.09a196.39,196.39,0,0,1,40.53-62.31,168.16,168.16,0,0,1,61.52-40.28Q427,144.54,468,144.55t76.78,13.7a168.12,168.12,0,0,1,61.51,40.28,196.76,196.76,0,0,1,40.54,62.31q14.77,35.71,14.78,78.09,0,41.54-14.78,77.68t-41,61.89a185.13,185.13,0,0,1-61.51,39.86,190.37,190.37,0,0,1-26.94,8.5V676H936V527.35Z"/></clipPath><linearGradient id="linear-gradient-2" x1="523.22" y1="602.67" x2="955.89" y2="602.67" gradientUnits="userSpaceOnUse"><stop offset="0" stop-color="#a74775"/><stop offset="1" stop-color="#ee4872"/><stop offset="1"/></linearGradient><linearGradient id="linear-gradient-3" x1="432.67" y1="602.33" x2="0" y2="602.33" xlink:href="#linear-gradient-2"/></defs><g id="Layer_2" data-name="Layer 2"><g id="Layer_1-2" data-name="Layer 1"><path class="cls-2" d="M760.74,527.35a323.47,323.47,0,0,0,27.72-52.6q25.75-61.89,25.74-136.65,0-74-26.22-135.41A328.89,328.89,0,0,0,715,95.52Q668.28,49.84,605.34,24.91T468,0Q394.56,0,331.14,24.91T221,95.11q-46.74,45.28-73,107.17T121.8,338.93q0,73.94,25.74,135.82a324.26,324.26,0,0,0,27.72,52.6H0V676H418.26V526.78a191.63,191.63,0,0,1-26.56-8.42A181.82,181.82,0,0,1,289.18,417q-14.81-35.7-14.79-78.08t14.79-78.09a196.39,196.39,0,0,1,40.53-62.31,168.16,168.16,0,0,1,61.52-40.28Q427,144.54,468,144.55t76.78,13.7a168.12,168.12,0,0,1,61.51,40.28,196.76,196.76,0,0,1,40.54,62.31q14.77,35.71,14.78,78.09,0,41.54-14.78,77.68t-41,61.89a185.13,185.13,0,0,1-61.51,39.86,190.37,190.37,0,0,1-26.94,8.5V676H936V527.35Z" transform="translate(9.71)"/><g class="cls-3"><rect class="cls-4" x="523.22" y="527.33" width="432.67" height="150.67"/><rect class="cls-5" y="527.33" width="432.67" height="150"/></g><path class="cls-6" d="M331.31,331.35a47.16,47.16,0,0,1,2.74-16.43A39.53,39.53,0,0,1,341.7,302a34.63,34.63,0,0,1,51.73,0A40.28,40.28,0,0,1,401.08,315a46.47,46.47,0,0,1,2.74,16.28,47.83,47.83,0,0,1-2.7,16.43,38.21,38.21,0,0,1-7.64,12.89A34.44,34.44,0,0,1,382,369a36.55,36.55,0,0,1-28.77,0,34.44,34.44,0,0,1-11.53-8.39A38.4,38.4,0,0,1,334,347.68,47.78,47.78,0,0,1,331.31,331.35Zm16,0a27.29,27.29,0,0,0,1.55,9.39,22.45,22.45,0,0,0,4.29,7.39,19.37,19.37,0,0,0,6.44,4.8,19.65,19.65,0,0,0,16,0,19.37,19.37,0,0,0,6.44-4.8,22.29,22.29,0,0,0,4.29-7.44,29.07,29.07,0,0,0,0-18.73,24.16,24.16,0,0,0-4.24-7.49,17.71,17.71,0,0,0-6.44-4.84,20.44,20.44,0,0,0-16.09,0,17.71,17.71,0,0,0-6.44,4.84,24.16,24.16,0,0,0-4.24,7.49A27.37,27.37,0,0,0,347.29,331.35Z" transform="translate(9.71)"/><path class="cls-6" d="M504.65,370.66H434.73V355.48l40.36-29.07L475,336.6l-40.26-29.17v-15h69.92v16.48H482.28q-8.59,0-15.83-.4a137.55,137.55,0,0,1-14.64-1.6l5.5-1.69,30.36,23.17V335l-30.46,23.07-5.4-1.89a130.3,130.3,0,0,1,14.39-1.6q7.19-.4,16.08-.4h22.37Z" transform="translate(9.71)"/><path class="cls-6" d="M606.48,330.76a50.49,50.49,0,0,1-2.45,16,36.25,36.25,0,0,1-7.09,12.63,31.8,31.8,0,0,1-11.44,8.24,37.9,37.9,0,0,1-15.28,2.95,33,33,0,0,1-14.33-3.1,35,35,0,0,1-11.44-8.69,40.25,40.25,0,0,1-7.59-13.23,49.62,49.62,0,0,1-2.7-16.63,50.36,50.36,0,0,1,1.6-13,46.33,46.33,0,0,1,4.2-10.58,31.33,31.33,0,0,1,5.79-7.65L556.94,308a37.07,37.07,0,0,0-4,6,34.13,34.13,0,0,0-2.74,6.94,30,30,0,0,0-1.05,8.14,27.31,27.31,0,0,0,1.59,9.44,24.08,24.08,0,0,0,4.45,7.59,19.63,19.63,0,0,0,6.69,5,19.85,19.85,0,0,0,8.34,1.75,21.35,21.35,0,0,0,9.29-1.9,18.52,18.52,0,0,0,6.64-5.19,23,23,0,0,0,4-7.59A30.53,30.53,0,0,0,591.5,329a31.28,31.28,0,0,0-1-8,22.4,22.4,0,0,0-2.75-6.45,14.1,14.1,0,0,0-4.14-4.24,9.6,9.6,0,0,0-5.3-1.55h-2.2l3.8-2.3v24.08H566.83V292.6q1.29-.19,3.09-.3l3.35-.15,2.15,0a29.62,29.62,0,0,1,13.08,2.8,26.77,26.77,0,0,1,9.74,7.94,38,38,0,0,1,6.09,12.23A54.06,54.06,0,0,1,606.48,330.76Z" transform="translate(9.71)"/></g></g></svg>