<svg xmlns="http://www.w3.org/2000/svg" xmlns:xlink="http://www.w3.org/1999/xlink" viewBox="0 0 553.82 112.49"><defs><style>.cls-1{fill:#fff;}.cls-10,.cls-2,.cls-3,.cls-4,.cls-5,.cls-6,.cls-7,.cls-8,.cls-9{fill:none;stroke-miterlimit:10;stroke-width:1.42px;}.cls-2{stroke:url(#linear-gradient);}.cls-3{stroke:url(#linear-gradient-2);}.cls-4{stroke:url(#linear-gradient-3);}.cls-5{stroke:url(#linear-gradient-4);}.cls-6{stroke:url(#linear-gradient-5);}.cls-7{stroke:url(#linear-gradient-6);}.cls-8{stroke:url(#linear-gradient-7);}.cls-9{stroke:url(#linear-gradient-8);}.cls-10{stroke:url(#linear-gradient-9);}</style><linearGradient id="linear-gradient" x1="-3.45" y1="107.64" x2="32.76" y2="71.43" gradientUnits="userSpaceOnUse"><stop offset="0.01" stop-color="#fff"/><stop offset="0.12" stop-color="#fbfbfb"/><stop offset="0.23" stop-color="#f0f0f0"/><stop offset="0.34" stop-color="#ddd"/><stop offset="0.44" stop-color="#c2c2c2"/><stop offset="0.55" stop-color="#a0a0a0"/><stop offset="0.65" stop-color="#767676"/><stop offset="0.75" stop-color="#444"/><stop offset="0.85" stop-color="#0b0b0b"/><stop offset="0.87"/></linearGradient><linearGradient id="linear-gradient-2" x1="68.26" y1="106.64" x2="109.18" y2="65.72" xlink:href="#linear-gradient"/><linearGradient id="linear-gradient-3" x1="129.62" y1="107.84" x2="180.02" y2="57.44" xlink:href="#linear-gradient"/><linearGradient id="linear-gradient-4" x1="195.04" y1="116.35" x2="237.71" y2="73.67" xlink:href="#linear-gradient"/><linearGradient id="linear-gradient-5" x1="243.62" y1="103.94" x2="294.43" y2="53.14" xlink:href="#linear-gradient"/><linearGradient id="linear-gradient-6" x1="318.27" y1="106.64" x2="359.19" y2="65.72" xlink:href="#linear-gradient"/><linearGradient id="linear-gradient-7" x1="374.45" y1="102.65" x2="421.44" y2="55.66" xlink:href="#linear-gradient"/><linearGradient id="linear-gradient-8" x1="436.67" y1="108.39" x2="481.75" y2="63.31" xlink:href="#linear-gradient"/><linearGradient id="linear-gradient-9" x1="502.81" y1="106.64" x2="543.73" y2="65.72" xlink:href="#linear-gradient"/></defs><g id="Layer_2" data-name="Layer 2"><g id="Layer_1-2" data-name="Layer 1"><path class="cls-1" d="M.71,51V1.42H27.92a19.94,19.94,0,0,1,9.46,2.19,17,17,0,0,1,6.56,6,16.18,16.18,0,0,1,2.41,8.78A17.49,17.49,0,0,1,37,34.33a20.26,20.26,0,0,1-9.89,2.38H16V51Zm15-27.35H24a8.66,8.66,0,0,0,3.26-.57,5.14,5.14,0,0,0,2.27-1.7,4.32,4.32,0,0,0,.85-2.69,3.4,3.4,0,0,0-.85-2.41,5.26,5.26,0,0,0-2.27-1.38A10.43,10.43,0,0,0,24,14.46H15.73Z"/><path class="cls-1" d="M88.72,51.73a35.88,35.88,0,0,1-12.08-1.95,29.06,29.06,0,0,1-9.49-5.42A23.76,23.76,0,0,1,61,36.14a24.49,24.49,0,0,1-2.16-10.27A24.06,24.06,0,0,1,61,15.55a24.33,24.33,0,0,1,6.2-8.18A29.4,29.4,0,0,1,76.68,2,35.36,35.36,0,0,1,88.65,0a36.6,36.6,0,0,1,12.12,1.91,28.69,28.69,0,0,1,9.46,5.42,24,24,0,0,1,8.33,18.46,24.62,24.62,0,0,1-2.16,10.39,24.33,24.33,0,0,1-6.17,8.22,28.51,28.51,0,0,1-9.46,5.42A36.35,36.35,0,0,1,88.72,51.73Zm0-14.17a17.81,17.81,0,0,0,5.74-.89A13.41,13.41,0,0,0,99,34.19a11.6,11.6,0,0,0,3-3.72,10.53,10.53,0,0,0,0-9.21,11.6,11.6,0,0,0-3-3.72,13.54,13.54,0,0,0-4.53-2.48,18.83,18.83,0,0,0-11.44,0,15.06,15.06,0,0,0-4.58,2.44,10.43,10.43,0,0,0-3,3.72,11,11,0,0,0,0,9.29,10.43,10.43,0,0,0,3,3.72A14.85,14.85,0,0,0,83,36.67,17.79,17.79,0,0,0,88.72,37.56Z"/><path class="cls-1" d="M169.49,32.87l.66-.31a16.65,16.65,0,0,0,6.7-6.06,16.53,16.53,0,0,0,2.44-9A15.82,15.82,0,0,0,177,8.93a14.6,14.6,0,0,0-6.62-5.56,25.89,25.89,0,0,0-10.6-1.95H133.58V51H147.9V34.72h5.79L164.62,51h17.22Zm-6.07-11.26a5.17,5.17,0,0,1-2.06,1.85,6.83,6.83,0,0,1-3.05.63H147.9V13.46H158a8.38,8.38,0,0,1,3.22.57,4.75,4.75,0,0,1,2.17,1.7,5,5,0,0,1,.78,2.91A5.34,5.34,0,0,1,163.42,21.61Z"/><path class="cls-1" d="M208.63,51V14.46H190.49v-13h51.94v13H223.94V51Z"/><polygon class="cls-1" points="284.1 36.11 284.1 13.64 272.05 13.64 272.05 36.11 264.54 36.11 264.54 1.39 251.5 1.39 251.5 44.05 251.5 44.05 251.5 51.11 301.11 51.11 301.11 36.11 284.1 36.11"/><path class="cls-1" d="M338.74,51.73a35.88,35.88,0,0,1-12.08-1.95,29.11,29.11,0,0,1-9.5-5.42A23.88,23.88,0,0,1,311,36.14a24.49,24.49,0,0,1-2.16-10.27,23.93,23.93,0,0,1,8.4-18.5A29.4,29.4,0,0,1,326.69,2a35.38,35.38,0,0,1,12-1.95,36.6,36.6,0,0,1,12.12,1.91,28.79,28.79,0,0,1,9.46,5.42,24,24,0,0,1,8.32,18.46,24.62,24.62,0,0,1-2.16,10.39,24.3,24.3,0,0,1-6.16,8.22,28.61,28.61,0,0,1-9.46,5.42A36.39,36.39,0,0,1,338.74,51.73Zm0-14.17a17.85,17.85,0,0,0,5.74-.89,13.41,13.41,0,0,0,4.5-2.48,11.71,11.71,0,0,0,2.94-3.72,10.53,10.53,0,0,0,0-9.21A11.71,11.71,0,0,0,349,17.54a13.49,13.49,0,0,0-4.54-2.48,18.83,18.83,0,0,0-11.44,0,15,15,0,0,0-4.57,2.44,10.56,10.56,0,0,0-3,3.72,11,11,0,0,0,0,9.29,10.56,10.56,0,0,0,3,3.72A14.8,14.8,0,0,0,333,36.67,17.85,17.85,0,0,0,338.74,37.56Z"/><path class="cls-1" d="M383.6,51V1.42h15.3V38h26.79V51Z"/><path class="cls-1" d="M440.08,51V38.34h11.48V14.1H440.08V1.42h38.26V14.1H466.86V38.34h11.48V51Z"/><path class="cls-1" d="M523.27,51.73a35.88,35.88,0,0,1-12.08-1.95,29.21,29.21,0,0,1-9.5-5.42,23.73,23.73,0,0,1-6.16-8.22,24.49,24.49,0,0,1-2.16-10.27,24.21,24.21,0,0,1,2.19-10.32,24.59,24.59,0,0,1,6.2-8.18A29.45,29.45,0,0,1,511.23,2,35.28,35.28,0,0,1,523.2,0a36.6,36.6,0,0,1,12.12,1.91,28.69,28.69,0,0,1,9.46,5.42,24,24,0,0,1,8.33,18.46,24,24,0,0,1-8.33,18.61,28.51,28.51,0,0,1-9.46,5.42A36.35,36.35,0,0,1,523.27,51.73Zm0-14.17a17.85,17.85,0,0,0,5.74-.89,13.41,13.41,0,0,0,4.5-2.48,11.71,11.71,0,0,0,2.94-3.72,10.44,10.44,0,0,0,0-9.21,11.71,11.71,0,0,0-2.94-3.72A13.54,13.54,0,0,0,529,15.06a18.86,18.86,0,0,0-11.45,0A15,15,0,0,0,513,17.5a10.43,10.43,0,0,0-3,3.72,11,11,0,0,0,0,9.29,10.43,10.43,0,0,0,3,3.72,14.8,14.8,0,0,0,4.57,2.44A17.85,17.85,0,0,0,523.27,37.56Z"/><path class="cls-2" d="M.71,61.32v49.06H27.92a20.17,20.17,0,0,0,9.46-2.17,17,17,0,0,0,6.56-6,15.88,15.88,0,0,0,2.41-8.69A17.27,17.27,0,0,0,37,77.83a20.47,20.47,0,0,0-9.89-2.35H16V61.32Zm15,27.05H24a8.87,8.87,0,0,1,3.26.56,5.19,5.19,0,0,1,2.27,1.69,4.23,4.23,0,0,1,.85,2.66,3.34,3.34,0,0,1-.85,2.38A5.24,5.24,0,0,1,27.28,97a10.75,10.75,0,0,1-3.26.45H15.73Z"/><path class="cls-3" d="M88.72,60.62a36.14,36.14,0,0,0-12.08,1.93,29.12,29.12,0,0,0-9.49,5.36A23.62,23.62,0,0,0,61,76,24,24,0,0,0,58.82,86.2,23.56,23.56,0,0,0,61,96.4a24.1,24.1,0,0,0,6.2,8.09,29.28,29.28,0,0,0,9.46,5.36,35.61,35.61,0,0,0,12,1.93,36.87,36.87,0,0,0,12.12-1.89,28.56,28.56,0,0,0,9.46-5.36,24.1,24.1,0,0,0,6.17-8.13,23.79,23.79,0,0,0,2.16-10.13,23.62,23.62,0,0,0-8.33-18.4,28.56,28.56,0,0,0-9.46-5.36A36.61,36.61,0,0,0,88.72,60.62Zm0,14a18.09,18.09,0,0,1,5.74.87A13.55,13.55,0,0,1,99,78a11.45,11.45,0,0,1,3,3.68,10.32,10.32,0,0,1,0,9.11,11.67,11.67,0,0,1-3,3.68,13.67,13.67,0,0,1-4.53,2.45,19,19,0,0,1-11.44,0,15,15,0,0,1-4.58-2.42,10.38,10.38,0,0,1-4-8.27,10.38,10.38,0,0,1,4-8.27A15,15,0,0,1,83,75.51,18.07,18.07,0,0,1,88.72,74.64Z"/><path class="cls-4" d="M169.49,79.27l.66.31a16.56,16.56,0,0,1,6.7,6,16.26,16.26,0,0,1,2.44,8.9A15.5,15.5,0,0,1,177,103a14.55,14.55,0,0,1-6.62,5.5,26.07,26.07,0,0,1-10.6,1.93H133.58V61.32H147.9V77.44h5.79l10.93-16.12h17.22Zm-6.07,11.14a5.12,5.12,0,0,0-2.06-1.83,6.83,6.83,0,0,0-3.05-.63H147.9V98.47H158a8.58,8.58,0,0,0,3.22-.56,4.74,4.74,0,0,0,2.17-1.69,4.89,4.89,0,0,0,.78-2.87A5.24,5.24,0,0,0,163.42,90.41Z"/><path class="cls-5" d="M208.63,61.32V97.48H190.49v12.9h51.94V97.48H223.94V61.32Z"/><polygon class="cls-6" points="284.1 76.07 284.1 98.29 272.05 98.29 272.05 76.07 264.54 76.07 264.54 110.41 251.5 110.41 251.5 68.22 251.5 68.22 251.5 61.24 301.11 61.24 301.11 76.07 284.1 76.07"/><path class="cls-7" d="M338.74,60.62a36.14,36.14,0,0,0-12.08,1.93,29.17,29.17,0,0,0-9.5,5.36A23.74,23.74,0,0,0,311,76a24,24,0,0,0-2.16,10.16A23.71,23.71,0,0,0,311,96.4a24.1,24.1,0,0,0,6.2,8.09,29.28,29.28,0,0,0,9.46,5.36,35.63,35.63,0,0,0,12,1.93,36.87,36.87,0,0,0,12.12-1.89,28.66,28.66,0,0,0,9.46-5.36,24.07,24.07,0,0,0,6.16-8.13,23.79,23.79,0,0,0,2.16-10.13,23.65,23.65,0,0,0-8.32-18.4,28.66,28.66,0,0,0-9.46-5.36A36.65,36.65,0,0,0,338.74,60.62Zm0,14a18.14,18.14,0,0,1,5.74.87A13.55,13.55,0,0,1,349,78a11.56,11.56,0,0,1,2.94,3.68,10.32,10.32,0,0,1,0,9.11A11.78,11.78,0,0,1,349,94.44a13.62,13.62,0,0,1-4.54,2.45,19,19,0,0,1-11.44,0,15,15,0,0,1-4.57-2.42,10.35,10.35,0,0,1-4-8.27,10.35,10.35,0,0,1,4-8.27A15,15,0,0,1,333,75.51,18.14,18.14,0,0,1,338.74,74.64Z"/><path class="cls-8" d="M383.6,61.32v49.06h15.3V74.22h26.79V61.32Z"/><path class="cls-9" d="M440.08,61.32V73.87h11.48v24H440.08v12.54h38.26V97.84H466.86v-24h11.48V61.32Z"/><path class="cls-10" d="M523.27,60.62a36.14,36.14,0,0,0-12.08,1.93,29.27,29.27,0,0,0-9.5,5.36A23.59,23.59,0,0,0,495.53,76a24,24,0,0,0-2.16,10.16,23.7,23.7,0,0,0,2.19,10.2,24.36,24.36,0,0,0,6.2,8.09,29.33,29.33,0,0,0,9.47,5.36,35.53,35.53,0,0,0,12,1.93,36.87,36.87,0,0,0,12.12-1.89,28.56,28.56,0,0,0,9.46-5.36A24.23,24.23,0,0,0,551,96.4a23.79,23.79,0,0,0,2.16-10.13,23.62,23.62,0,0,0-8.33-18.4,28.56,28.56,0,0,0-9.46-5.36A36.61,36.61,0,0,0,523.27,60.62Zm0,14a18.14,18.14,0,0,1,5.74.87,13.55,13.55,0,0,1,4.5,2.46,11.56,11.56,0,0,1,2.94,3.68,10.23,10.23,0,0,1,0,9.11,11.78,11.78,0,0,1-2.94,3.68A13.67,13.67,0,0,1,529,96.89a19.06,19.06,0,0,1-11.45,0A15,15,0,0,1,513,94.47a10.38,10.38,0,0,1-4-8.27,10.38,10.38,0,0,1,4-8.27,15,15,0,0,1,4.57-2.42A18.14,18.14,0,0,1,523.27,74.64Z"/></g></g></svg>