<svg xmlns="http://www.w3.org/2000/svg" xmlns:xlink="http://www.w3.org/1999/xlink" viewBox="0 0 435.47 112.81"><defs><style>.cls-1{fill:#fff;}.cls-2,.cls-3,.cls-4,.cls-5,.cls-6,.cls-7,.cls-8{fill:none;stroke-miterlimit:10;stroke-width:1.42px;}.cls-2{stroke:url(#linear-gradient);}.cls-3{stroke:url(#linear-gradient-2);}.cls-4{stroke:url(#linear-gradient-3);}.cls-5{stroke:url(#linear-gradient-4);}.cls-6{stroke:url(#linear-gradient-5);}.cls-7{stroke:url(#linear-gradient-6);}.cls-8{stroke:url(#linear-gradient-7);}</style><linearGradient id="linear-gradient" y1="134.34" x2="53.44" y2="134.34" gradientTransform="matrix(1, 0, 0, -1.03, 0, 224.74)" gradientUnits="userSpaceOnUse"><stop offset="0.01" stop-color="#fff"/><stop offset="0.12" stop-color="#fbfbfb"/><stop offset="0.23" stop-color="#f0f0f0"/><stop offset="0.34" stop-color="#ddd"/><stop offset="0.44" stop-color="#c2c2c2"/><stop offset="0.55" stop-color="#a0a0a0"/><stop offset="0.65" stop-color="#767676"/><stop offset="0.75" stop-color="#444"/><stop offset="0.85" stop-color="#0b0b0b"/><stop offset="0.87"/></linearGradient><linearGradient id="linear-gradient-2" x1="61.94" y1="134.34" x2="123.09" y2="134.34" xlink:href="#linear-gradient"/><linearGradient id="linear-gradient-3" x1="136.7" y1="134.68" x2="191.05" y2="134.68" xlink:href="#linear-gradient"/><linearGradient id="linear-gradient-4" x1="203.31" y1="134.68" x2="256.68" y2="134.68" xlink:href="#linear-gradient"/><linearGradient id="linear-gradient-5" x1="257.26" y1="134.68" x2="317.46" y2="134.68" xlink:href="#linear-gradient"/><linearGradient id="linear-gradient-6" x1="321.52" y1="134.34" x2="374.96" y2="134.34" xlink:href="#linear-gradient"/><linearGradient id="linear-gradient-7" x1="382.11" y1="134.68" x2="435.47" y2="134.68" xlink:href="#linear-gradient"/></defs><g id="Layer_2" data-name="Layer 2"><g id="Layer_1-2" data-name="Layer 1"><path class="cls-1" d="M31,51.73a37,37,0,0,1-11.91-1.84,28.61,28.61,0,0,1-9.53-5.32,24.15,24.15,0,0,1-6.31-8.22A24.43,24.43,0,0,1,1,25.87,24,24,0,0,1,3.31,15.38,24.66,24.66,0,0,1,9.62,7.16a28.13,28.13,0,0,1,9.49-5.32A37.21,37.21,0,0,1,31.09,0a37.71,37.71,0,0,1,8,.85A32.85,32.85,0,0,1,46.5,3.37a27.58,27.58,0,0,1,6.13,4L43.77,18.71a16.69,16.69,0,0,0-3.15-2.41,17.55,17.55,0,0,0-4.36-1.84,20.62,20.62,0,0,0-5.74-.71,16.52,16.52,0,0,0-5.06.78,13.9,13.9,0,0,0-4.4,2.3,11.25,11.25,0,0,0-3.12,3.83,11.8,11.8,0,0,0-1.17,5.42A10.73,10.73,0,0,0,18,31.18,11,11,0,0,0,21.35,35a15.54,15.54,0,0,0,4.92,2.34,21.53,21.53,0,0,0,5.88.78,16.79,16.79,0,0,0,5.67-.89A19.69,19.69,0,0,0,42.25,35c1.3-.87,2.42-1.69,3.37-2.44l7.23,11.55a25.93,25.93,0,0,1-5.46,3.58,39.2,39.2,0,0,1-7.62,2.87A33.81,33.81,0,0,1,31,51.73Z"/><path class="cls-1" d="M92.88,51.73A35.88,35.88,0,0,1,80.8,49.78a29.06,29.06,0,0,1-9.49-5.42,23.76,23.76,0,0,1-6.17-8.22A24.49,24.49,0,0,1,63,25.87a24.06,24.06,0,0,1,2.2-10.32,24.33,24.33,0,0,1,6.2-8.18A29.3,29.3,0,0,1,80.84,2,35.32,35.32,0,0,1,92.81,0a36.6,36.6,0,0,1,12.12,1.91,28.69,28.69,0,0,1,9.46,5.42,24,24,0,0,1,8.33,18.46,24.62,24.62,0,0,1-2.16,10.39,24.33,24.33,0,0,1-6.17,8.22,28.51,28.51,0,0,1-9.46,5.42A36.35,36.35,0,0,1,92.88,51.73Zm0-14.17a17.81,17.81,0,0,0,5.74-.89,13.41,13.41,0,0,0,4.5-2.48,11.6,11.6,0,0,0,2.95-3.72,10.53,10.53,0,0,0,0-9.21,11.6,11.6,0,0,0-2.95-3.72,13.54,13.54,0,0,0-4.53-2.48,18.86,18.86,0,0,0-11.45,0,15.13,15.13,0,0,0-4.57,2.44,10.43,10.43,0,0,0-3,3.72,11,11,0,0,0,0,9.29,10.43,10.43,0,0,0,3,3.72,14.91,14.91,0,0,0,4.57,2.44A17.85,17.85,0,0,0,92.88,37.56Z"/><path class="cls-1" d="M175.94,51V37.49c0-2.22,0-4.16,0-5.81s.09-3.1.18-4.33.19-2.35.28-3.36.23-2,.39-2.94.35-2,.54-3.05l5.31-1.7L152,51H137.74V1.42h14.74V15c0,1.28,0,2.51-.1,3.69s-.17,2.42-.29,3.72l-.39,4.25q-.21,2.31-.64,5.35l-2.83,1L176.58,1.42h14.1V51Z"/><path class="cls-1" d="M222.5,51V14.46H204.35v-13h52v13H237.8V51Z"/><path class="cls-1" d="M258.71,51l22.68-49.6h12.68L316.68,51H301.37L290.46,26.93c-.57-1.23-1-2.35-1.46-3.37s-.75-2-1.06-2.87-.6-1.82-.88-2.76-.57-2-.85-3H289c-.28,1.14-.57,2.18-.85,3.12s-.6,1.88-1,2.8-.74,1.87-1.17,2.83-.9,2.07-1.41,3.3L273.73,51Zm11.05-6.94,4.54-10.42h26.93l2.9,10.42Z"/><path class="cls-1" d="M352.54,51.73a37,37,0,0,1-11.91-1.84,28.61,28.61,0,0,1-9.53-5.32,23.88,23.88,0,0,1-8.54-18.7,23.89,23.89,0,0,1,2.27-10.49,24.77,24.77,0,0,1,6.3-8.22,28.27,28.27,0,0,1,9.5-5.32,37.21,37.21,0,0,1,12-1.84,37.71,37.71,0,0,1,8,.85A32.85,32.85,0,0,1,368,3.37a27.82,27.82,0,0,1,6.13,4l-8.86,11.34a16.69,16.69,0,0,0-3.15-2.41,17.71,17.71,0,0,0-4.36-1.84,20.67,20.67,0,0,0-5.74-.71,16.58,16.58,0,0,0-5.07.78,13.85,13.85,0,0,0-4.39,2.3,11.25,11.25,0,0,0-3.12,3.83,11.8,11.8,0,0,0-1.17,5.42,10.61,10.61,0,0,0,1.21,5.1A11.09,11.09,0,0,0,342.86,35a15.59,15.59,0,0,0,4.93,2.34,21.53,21.53,0,0,0,5.88.78,16.83,16.83,0,0,0,5.67-.89,19.69,19.69,0,0,0,4.43-2.2c1.3-.87,2.42-1.69,3.36-2.44l7.23,11.55a25.84,25.84,0,0,1-5.45,3.58,39.2,39.2,0,0,1-7.62,2.87A33.81,33.81,0,0,1,352.54,51.73Z"/><path class="cls-1" d="M401.29,51V14.46H383.15v-13h51.94v13H416.6V51Z"/><path class="cls-2" d="M30.69,60.73a37.27,37.27,0,0,0-11.91,1.83,28.76,28.76,0,0,0-9.53,5.27A23.67,23.67,0,0,0,.71,86.42,23.57,23.57,0,0,0,3,96.83,24.68,24.68,0,0,0,9.28,105a28.36,28.36,0,0,0,9.5,5.28,37.49,37.49,0,0,0,12,1.83,38.36,38.36,0,0,0,8-.85,32.81,32.81,0,0,0,7.37-2.5,28.08,28.08,0,0,0,6.13-4L43.44,93.52a16.26,16.26,0,0,1-3.15,2.4,18.26,18.26,0,0,1-4.36,1.83,21.08,21.08,0,0,1-5.74.7,16.88,16.88,0,0,1-5.07-.77,14,14,0,0,1-4.39-2.29,11.24,11.24,0,0,1-3.12-3.8,11.7,11.7,0,0,1-1.17-5.39,10.48,10.48,0,0,1,1.21-5.06A11,11,0,0,1,21,77.34,15.47,15.47,0,0,1,25.94,75a21.93,21.93,0,0,1,5.88-.77,16.88,16.88,0,0,1,5.67.88,20.09,20.09,0,0,1,4.43,2.18q1.95,1.31,3.36,2.43l7.23-11.47a25.83,25.83,0,0,0-5.45-3.56,39.19,39.19,0,0,0-7.62-2.85A33.8,33.8,0,0,0,30.69,60.73Z"/><path class="cls-3" d="M92.55,60.73a36.14,36.14,0,0,0-12.08,1.93A29.33,29.33,0,0,0,71,68.05a23.61,23.61,0,0,0-6.16,8.16A24.17,24.17,0,0,0,71,104.79a29.51,29.51,0,0,0,9.46,5.38,35.63,35.63,0,0,0,12,1.94,36.86,36.86,0,0,0,12.12-1.9,28.62,28.62,0,0,0,9.46-5.39,24.33,24.33,0,0,0,0-36.81,28.43,28.43,0,0,0-9.46-5.38A36.39,36.39,0,0,0,92.55,60.73Zm0,14.07a18.13,18.13,0,0,1,5.74.88,13.57,13.57,0,0,1,4.5,2.47,11.59,11.59,0,0,1,2.94,3.69,10.4,10.4,0,0,1,0,9.15,11.74,11.74,0,0,1-2.94,3.7,13.68,13.68,0,0,1-4.53,2.46,19.06,19.06,0,0,1-11.45,0,15,15,0,0,1-4.57-2.43,10.47,10.47,0,0,1-3-3.69,10.93,10.93,0,0,1,0-9.22,10.41,10.41,0,0,1,3-3.7,15,15,0,0,1,4.57-2.43A18.13,18.13,0,0,1,92.55,74.8Z"/><path class="cls-4" d="M176.24,110.7,151.06,82.88c.13,1,.23,1.94.31,2.8l.39,4.22c.12,1.29.21,2.52.28,3.69s.11,2.4.11,3.66V110.7H137.41V61.43h14.24L176.2,89c0-.25-.07-.48-.1-.74-.09-1-.19-2.12-.28-3.34s-.16-2.65-.18-4.3,0-3.56,0-5.77V61.43h14.74V110.7Z"/><path class="cls-5" d="M222.16,61.43V97.75H204v13H256v-13h-18.5V61.43Z"/><path class="cls-6" d="M301,61.43h15.3l-22.6,49.27H281.05L258.38,61.43h15l3.12,6.9h21.37ZM281.21,78.67l3,6.69c.52,1.22,1,2.31,1.42,3.27s.81,1.9,1.17,2.82c.15.4.28.81.42,1.22.12-.37.23-.75.36-1.12.3-.89.66-1.84,1.06-2.85s.89-2.12,1.45-3.34l3.05-6.69Z"/><path class="cls-7" d="M352.2,60.73a37.16,37.16,0,0,0-11.9,1.83,28.76,28.76,0,0,0-9.53,5.27,23.67,23.67,0,0,0-8.54,18.59,23.7,23.7,0,0,0,2.26,10.41A24.84,24.84,0,0,0,330.8,105a28.27,28.27,0,0,0,9.5,5.28,37.43,37.43,0,0,0,12,1.83,38.53,38.53,0,0,0,8.05-.85,32.81,32.81,0,0,0,7.37-2.5,28.08,28.08,0,0,0,6.13-4L365,93.52a16.26,16.26,0,0,1-3.15,2.4,18.26,18.26,0,0,1-4.36,1.83,21.13,21.13,0,0,1-5.74.7,16.88,16.88,0,0,1-5.07-.77,13.92,13.92,0,0,1-4.39-2.29,11.24,11.24,0,0,1-3.12-3.8A11.7,11.7,0,0,1,338,86.2a10.59,10.59,0,0,1,1.2-5.06,11.13,11.13,0,0,1,3.37-3.8A15.52,15.52,0,0,1,347.45,75a22.05,22.05,0,0,1,5.89-.77,16.88,16.88,0,0,1,5.67.88,20.09,20.09,0,0,1,4.43,2.18c1.29.87,2.42,1.68,3.36,2.43L374,68.26a25.67,25.67,0,0,0-5.46-3.56A38.71,38.71,0,0,0,361,61.85,33.75,33.75,0,0,0,352.2,60.73Z"/><path class="cls-8" d="M401,61.43V97.75H382.82v13h51.94v-13H416.27V61.43Z"/></g></g></svg>