<svg xmlns="http://www.w3.org/2000/svg" xmlns:xlink="http://www.w3.org/1999/xlink" viewBox="0 0 1028.33 676"><defs><style>.cls-1{fill:none;}.cls-2{fill:url(#linear-gradient);}.cls-3{clip-path:url(#clip-path);}.cls-4{fill:#c84774;}.cls-5{fill:#cb4774;}.cls-6{fill:#cf4773;}.cls-7{fill:#bd4774;}.cls-8{fill:#c44774;}.cls-9{fill:#b34775;}.cls-10{fill:#b64775;}.cls-11{fill:#ba4774;}.cls-12{fill:#a74775;}.cls-13{fill:#ab4775;}.cls-14{fill:#ae4775;}.cls-15{fill:#ee4872;}.cls-16{fill:#e94873;}.cls-17{fill:#de4873;}.cls-18{fill:#e14873;}.cls-19{fill:#e54873;}.cls-20{fill:#d34773;}.cls-21{fill:#d74773;}.cls-22{fill:#da4773;}.cls-23{fill:#fff;}</style><linearGradient id="linear-gradient" x1="468" x2="468" y2="676" gradientUnits="userSpaceOnUse"><stop offset="0.01" stop-color="#fff"/><stop offset="0.1" stop-color="#fffbfc"/><stop offset="0.19" stop-color="#fef0f3"/><stop offset="0.27" stop-color="#fcdde5"/><stop offset="0.36" stop-color="#f9c2d0"/><stop offset="0.44" stop-color="#f6a0b6"/><stop offset="0.52" stop-color="#f27796"/><stop offset="0.6" stop-color="#ee4872"/><stop offset="0.62" stop-color="#df436b"/><stop offset="0.68" stop-color="#b83858"/><stop offset="0.75" stop-color="#79253a"/><stop offset="0.83" stop-color="#230a11"/><stop offset="0.87"/></linearGradient><clipPath id="clip-path" transform="translate(46.37)"><path class="cls-1" d="M760.74,527.35a323.47,323.47,0,0,0,27.72-52.6q25.75-61.89,25.74-136.65,0-74-26.22-135.41A328.89,328.89,0,0,0,715,95.52Q668.28,49.84,605.34,24.91T468,0Q394.56,0,331.14,24.91T221,95.11q-46.74,45.28-73,107.17T121.8,338.93q0,73.94,25.74,135.82a324.26,324.26,0,0,0,27.72,52.6H0V676H418.26V526.78a191.63,191.63,0,0,1-26.56-8.42A181.82,181.82,0,0,1,289.18,417q-14.81-35.7-14.79-78.08t14.79-78.09a196.39,196.39,0,0,1,40.53-62.31,168.16,168.16,0,0,1,61.52-40.28Q427,144.54,468,144.55t76.78,13.7a168.12,168.12,0,0,1,61.51,40.28,196.76,196.76,0,0,1,40.54,62.31q14.77,35.71,14.78,78.09,0,41.54-14.78,77.68t-41,61.89a185.13,185.13,0,0,1-61.51,39.86,190.37,190.37,0,0,1-26.94,8.5V676H936V527.35Z"/></clipPath></defs><g id="Layer_2" data-name="Layer 2"><g id="Layer_1-2" data-name="Layer 1"><path class="cls-2" d="M760.74,527.35a323.47,323.47,0,0,0,27.72-52.6q25.75-61.89,25.74-136.65,0-74-26.22-135.41A328.89,328.89,0,0,0,715,95.52Q668.28,49.84,605.34,24.91T468,0Q394.56,0,331.14,24.91T221,95.11q-46.74,45.28-73,107.17T121.8,338.93q0,73.94,25.74,135.82a324.26,324.26,0,0,0,27.72,52.6H0V676H418.26V526.78a191.63,191.63,0,0,1-26.56-8.42A181.82,181.82,0,0,1,289.18,417q-14.81-35.7-14.79-78.08t14.79-78.09a196.39,196.39,0,0,1,40.53-62.31,168.16,168.16,0,0,1,61.52-40.28Q427,144.54,468,144.55t76.78,13.7a168.12,168.12,0,0,1,61.51,40.28,196.76,196.76,0,0,1,40.54,62.31q14.77,35.71,14.78,78.09,0,41.54-14.78,77.68t-41,61.89a185.13,185.13,0,0,1-61.51,39.86,190.37,190.37,0,0,1-26.94,8.5V676H936V527.35Z" transform="translate(46.37)"/><g class="cls-3"><polygon class="cls-4" points="344.99 601.66 324.78 601.66 281.54 527.32 301.76 527.32 344.99 601.66"/><polygon class="cls-4" points="281.54 676 301.76 676 344.99 601.66 324.78 601.66 281.54 676"/><polygon class="cls-5" points="325.06 601.66 304.85 601.66 261.62 527.32 281.83 527.32 325.06 601.66"/><polygon class="cls-5" points="261.62 676 281.83 676 325.06 601.66 304.85 601.66 261.62 676"/><polygon class="cls-6" points="304.86 601.66 284.64 601.66 241.41 527.32 261.63 527.32 304.86 601.66"/><polygon class="cls-6" points="241.41 676 261.63 676 304.86 601.66 284.64 601.66 241.41 676"/><polygon class="cls-7" points="405.33 601.66 385.11 601.66 341.88 527.32 362.09 527.32 405.33 601.66"/><polygon class="cls-7" points="341.88 676 362.09 676 405.33 601.66 385.11 601.66 341.88 676"/><polygon class="cls-8" points="385.4 601.66 365.19 601.66 321.95 527.32 342.17 527.32 385.4 601.66"/><polygon class="cls-8" points="321.95 676 342.17 676 385.4 601.66 365.19 601.66 321.95 676"/><polygon class="cls-4" points="365.19 601.66 344.98 601.66 301.75 527.32 321.96 527.32 365.19 601.66"/><polygon class="cls-4" points="301.75 676 321.96 676 365.19 601.66 344.98 601.66 301.75 676"/><polygon class="cls-9" points="465.66 601.66 445.45 601.66 402.22 527.32 422.43 527.32 465.66 601.66"/><polygon class="cls-9" points="402.22 676 422.43 676 465.66 601.66 445.45 601.66 402.22 676"/><polygon class="cls-10" points="445.74 601.66 425.52 601.66 382.29 527.32 402.5 527.32 445.74 601.66"/><polygon class="cls-10" points="382.29 676 402.5 676 445.74 601.66 425.52 601.66 382.29 676"/><polygon class="cls-11" points="425.53 601.66 405.32 601.66 362.08 527.32 382.3 527.32 425.53 601.66"/><polygon class="cls-11" points="362.08 676 382.3 676 425.53 601.66 405.32 601.66 362.08 676"/><polygon class="cls-12" points="526 601.66 505.79 601.66 462.55 527.32 482.77 527.32 526 601.66"/><polygon class="cls-12" points="462.55 676 482.77 676 526 601.66 505.79 601.66 462.55 676"/><polygon class="cls-13" points="506.07 601.66 485.86 601.66 442.63 527.32 462.84 527.32 506.07 601.66"/><polygon class="cls-13" points="442.63 676 462.84 676 506.07 601.66 485.86 601.66 442.63 676"/><polygon class="cls-14" points="485.87 601.66 465.65 601.66 422.42 527.32 442.63 527.32 485.87 601.66"/><polygon class="cls-14" points="422.42 676 442.63 676 485.87 601.66 465.65 601.66 422.42 676"/><polygon class="cls-15" points="103.58 601.66 83.36 601.66 40.13 527.32 60.35 527.32 103.58 601.66"/><polygon class="cls-15" points="40.13 676 60.35 676 103.58 601.66 83.36 601.66 40.13 676"/><polygon class="cls-15" points="83.65 601.66 63.44 601.66 20.2 527.32 40.42 527.32 83.65 601.66"/><polygon class="cls-15" points="20.2 676 40.42 676 83.65 601.66 63.44 601.66 20.2 676"/><polygon class="cls-15" points="63.45 601.66 43.23 601.66 0 527.32 20.21 527.32 63.45 601.66"/><polygon class="cls-15" points="0 676 20.21 676 63.45 601.66 43.23 601.66 0 676"/><polygon class="cls-16" points="163.92 601.66 143.7 601.66 100.47 527.32 120.68 527.32 163.92 601.66"/><polygon class="cls-16" points="100.47 676 120.68 676 163.92 601.66 143.7 601.66 100.47 676"/><polygon class="cls-15" points="143.99 601.66 123.77 601.66 80.54 527.32 100.75 527.32 143.99 601.66"/><polygon class="cls-15" points="80.54 676 100.75 676 143.99 601.66 123.77 601.66 80.54 676"/><polygon class="cls-15" points="123.78 601.66 103.57 601.66 60.34 527.32 80.55 527.32 123.78 601.66"/><polygon class="cls-15" points="60.34 676 80.55 676 123.78 601.66 103.57 601.66 60.34 676"/><polygon class="cls-17" points="224.25 601.66 204.04 601.66 160.81 527.32 181.02 527.32 224.25 601.66"/><polygon class="cls-17" points="160.81 676 181.02 676 224.25 601.66 204.04 601.66 160.81 676"/><polygon class="cls-18" points="204.32 601.66 184.11 601.66 140.88 527.32 161.09 527.32 204.32 601.66"/><polygon class="cls-18" points="140.88 676 161.09 676 204.32 601.66 184.11 601.66 140.88 676"/><polygon class="cls-19" points="184.12 601.66 163.91 601.66 120.67 527.32 140.89 527.32 184.12 601.66"/><polygon class="cls-19" points="120.67 676 140.89 676 184.12 601.66 163.91 601.66 120.67 676"/><polygon class="cls-20" points="284.59 601.66 264.37 601.66 221.14 527.32 241.35 527.32 284.59 601.66"/><polygon class="cls-20" points="221.14 676 241.35 676 284.59 601.66 264.37 601.66 221.14 676"/><polygon class="cls-21" points="264.66 601.66 244.45 601.66 201.21 527.32 221.43 527.32 264.66 601.66"/><polygon class="cls-21" points="201.21 676 221.43 676 264.66 601.66 244.45 601.66 201.21 676"/><polygon class="cls-22" points="244.46 601.66 224.24 601.66 181.01 527.32 201.22 527.32 244.46 601.66"/><polygon class="cls-22" points="181.01 676 201.22 676 244.46 601.66 224.24 601.66 181.01 676"/><polygon class="cls-4" points="683.34 601.55 703.56 601.55 746.79 527.21 726.58 527.21 683.34 601.55"/><polygon class="cls-4" points="746.79 675.89 726.58 675.89 683.34 601.55 703.56 601.55 746.79 675.89"/><polygon class="cls-5" points="703.27 601.55 723.48 601.55 766.72 527.21 746.5 527.21 703.27 601.55"/><polygon class="cls-5" points="766.72 675.89 746.5 675.89 703.27 601.55 723.48 601.55 766.72 675.89"/><polygon class="cls-6" points="723.47 601.55 743.69 601.55 786.92 527.21 766.71 527.21 723.47 601.55"/><polygon class="cls-6" points="786.92 675.89 766.71 675.89 723.47 601.55 743.69 601.55 786.92 675.89"/><polygon class="cls-7" points="623.01 601.55 643.22 601.55 686.45 527.21 666.24 527.21 623.01 601.55"/><polygon class="cls-7" points="686.45 675.89 666.24 675.89 623.01 601.55 643.22 601.55 686.45 675.89"/><polygon class="cls-8" points="642.93 601.55 663.15 601.55 706.38 527.21 686.17 527.21 642.93 601.55"/><polygon class="cls-8" points="706.38 675.89 686.17 675.89 642.93 601.55 663.15 601.55 706.38 675.89"/><polygon class="cls-4" points="663.14 601.55 683.35 601.55 726.59 527.21 706.37 527.21 663.14 601.55"/><polygon class="cls-4" points="726.59 675.89 706.37 675.89 663.14 601.55 683.35 601.55 726.59 675.89"/><polygon class="cls-9" points="562.67 601.55 582.88 601.55 626.12 527.21 605.9 527.21 562.67 601.55"/><polygon class="cls-9" points="626.12 675.89 605.9 675.89 562.67 601.55 582.88 601.55 626.12 675.89"/><polygon class="cls-10" points="582.6 601.55 602.81 601.55 646.04 527.21 625.83 527.21 582.6 601.55"/><polygon class="cls-10" points="646.04 675.89 625.83 675.89 582.6 601.55 602.81 601.55 646.04 675.89"/><polygon class="cls-11" points="602.8 601.55 623.02 601.55 666.25 527.21 646.03 527.21 602.8 601.55"/><polygon class="cls-11" points="666.25 675.89 646.03 675.89 602.8 601.55 623.02 601.55 666.25 675.89"/><polygon class="cls-12" points="502.33 601.55 522.55 601.55 565.78 527.21 545.57 527.21 502.33 601.55"/><polygon class="cls-12" points="565.78 675.89 545.57 675.89 502.33 601.55 522.55 601.55 565.78 675.89"/><polygon class="cls-13" points="522.26 601.55 542.48 601.55 585.71 527.21 565.49 527.21 522.26 601.55"/><polygon class="cls-13" points="585.71 675.89 565.49 675.89 522.26 601.55 542.48 601.55 585.71 675.89"/><polygon class="cls-14" points="542.47 601.55 562.68 601.55 605.91 527.21 585.7 527.21 542.47 601.55"/><polygon class="cls-14" points="605.91 675.89 585.7 675.89 542.47 601.55 562.68 601.55 605.91 675.89"/><polygon class="cls-15" points="924.75 601.55 944.97 601.55 988.2 527.21 967.99 527.21 924.75 601.55"/><polygon class="cls-15" points="988.2 675.89 967.99 675.89 924.75 601.55 944.97 601.55 988.2 675.89"/><polygon class="cls-15" points="944.68 601.55 964.9 601.55 1008.13 527.21 987.91 527.21 944.68 601.55"/><polygon class="cls-15" points="1008.13 675.89 987.91 675.89 944.68 601.55 964.9 601.55 1008.13 675.89"/><polygon class="cls-15" points="964.89 601.55 985.1 601.55 1028.33 527.21 1008.12 527.21 964.89 601.55"/><polygon class="cls-15" points="1028.33 675.89 1008.12 675.89 964.89 601.55 985.1 601.55 1028.33 675.89"/><polygon class="cls-16" points="864.42 601.55 884.63 601.55 927.87 527.21 907.65 527.21 864.42 601.55"/><polygon class="cls-16" points="927.87 675.89 907.65 675.89 864.42 601.55 884.63 601.55 927.87 675.89"/><polygon class="cls-15" points="884.35 601.55 904.56 601.55 947.79 527.21 927.58 527.21 884.35 601.55"/><polygon class="cls-15" points="947.79 675.89 927.58 675.89 884.35 601.55 904.56 601.55 947.79 675.89"/><polygon class="cls-15" points="904.55 601.55 924.76 601.55 968 527.21 947.78 527.21 904.55 601.55"/><polygon class="cls-15" points="968 675.89 947.78 675.89 904.55 601.55 924.76 601.55 968 675.89"/><polygon class="cls-17" points="804.08 601.55 824.3 601.55 867.53 527.21 847.31 527.21 804.08 601.55"/><polygon class="cls-17" points="867.53 675.89 847.31 675.89 804.08 601.55 824.3 601.55 867.53 675.89"/><polygon class="cls-18" points="824.01 601.55 844.22 601.55 887.46 527.21 867.24 527.21 824.01 601.55"/><polygon class="cls-18" points="887.46 675.89 867.24 675.89 824.01 601.55 844.22 601.55 887.46 675.89"/><polygon class="cls-19" points="844.21 601.55 864.43 601.55 907.66 527.21 887.45 527.21 844.21 601.55"/><polygon class="cls-19" points="907.66 675.89 887.45 675.89 844.21 601.55 864.43 601.55 907.66 675.89"/><polygon class="cls-20" points="743.75 601.55 763.96 601.55 807.19 527.21 786.98 527.21 743.75 601.55"/><polygon class="cls-20" points="807.19 675.89 786.98 675.89 743.75 601.55 763.96 601.55 807.19 675.89"/><polygon class="cls-21" points="763.67 601.55 783.89 601.55 827.12 527.21 806.91 527.21 763.67 601.55"/><polygon class="cls-21" points="827.12 675.89 806.91 675.89 763.67 601.55 783.89 601.55 827.12 675.89"/><polygon class="cls-22" points="783.88 601.55 804.09 601.55 847.32 527.21 827.11 527.21 783.88 601.55"/><polygon class="cls-22" points="847.32 675.89 827.11 675.89 783.88 601.55 804.09 601.55 847.32 675.89"/></g><path class="cls-23" d="M327.93,331.35a47.16,47.16,0,0,1,2.75-16.43A39.34,39.34,0,0,1,338.32,302a34.65,34.65,0,0,1,51.74,0A40.44,40.44,0,0,1,397.7,315a46.47,46.47,0,0,1,2.74,16.28,48.07,48.07,0,0,1-2.69,16.43,38.54,38.54,0,0,1-7.64,12.89A34.58,34.58,0,0,1,378.57,369a36.55,36.55,0,0,1-28.77,0,34.44,34.44,0,0,1-11.53-8.39,38.21,38.21,0,0,1-7.64-12.89A47.54,47.54,0,0,1,327.93,331.35Zm16,0a27.53,27.53,0,0,0,1.55,9.39,22.45,22.45,0,0,0,4.29,7.39,19.31,19.31,0,0,0,6.45,4.8,19.63,19.63,0,0,0,16,0,19.37,19.37,0,0,0,6.44-4.8,22.29,22.29,0,0,0,4.29-7.44,29.07,29.07,0,0,0,0-18.73,24.16,24.16,0,0,0-4.24-7.49,17.71,17.71,0,0,0-6.44-4.84,20.41,20.41,0,0,0-16.08,0,17.66,17.66,0,0,0-6.45,4.84,24.36,24.36,0,0,0-4.24,7.49A27.61,27.61,0,0,0,343.91,331.35Z" transform="translate(46.37)"/><path class="cls-23" d="M501.27,370.66H431.36V355.48l40.35-29.07-.1,10.19-40.25-29.17v-15h69.91v16.48H478.9q-8.59,0-15.83-.4a137.09,137.09,0,0,1-14.63-1.6l5.49-1.69,30.36,23.17V335l-30.46,23.07-5.39-1.89a129.85,129.85,0,0,1,14.38-1.6q7.19-.4,16.08-.4h22.37Z" transform="translate(46.37)"/><path class="cls-23" d="M603.1,330.76a50.49,50.49,0,0,1-2.45,16,36.25,36.25,0,0,1-7.09,12.63,31.71,31.71,0,0,1-11.44,8.24,37.9,37.9,0,0,1-15.28,2.95,33,33,0,0,1-14.33-3.1,35,35,0,0,1-11.44-8.69,40.25,40.25,0,0,1-7.59-13.23,53.4,53.4,0,0,1-1.1-29.67,46.33,46.33,0,0,1,4.2-10.58,31.33,31.33,0,0,1,5.79-7.65L553.56,308a37.07,37.07,0,0,0-4,6,34.72,34.72,0,0,0-2.74,6.94,30,30,0,0,0-1.05,8.14,27.08,27.08,0,0,0,1.6,9.44,23.87,23.87,0,0,0,4.44,7.59,19.63,19.63,0,0,0,6.69,5,19.89,19.89,0,0,0,8.34,1.75,21.35,21.35,0,0,0,9.29-1.9,18.44,18.44,0,0,0,6.64-5.19,23,23,0,0,0,4-7.59,30.53,30.53,0,0,0,1.35-9.19,30.85,30.85,0,0,0-1-8,22.4,22.4,0,0,0-2.75-6.45,14.1,14.1,0,0,0-4.14-4.24,9.58,9.58,0,0,0-5.3-1.55h-2.19l3.79-2.3v24.08H563.45V292.6q1.29-.19,3.09-.3l3.35-.15,2.15,0a29.62,29.62,0,0,1,13.08,2.8,26.77,26.77,0,0,1,9.74,7.94A38,38,0,0,1,601,315.07,54.06,54.06,0,0,1,603.1,330.76Z" transform="translate(46.37)"/></g></g></svg>