<svg xmlns="http://www.w3.org/2000/svg" viewBox="0 0 275.17 81.3"><defs><style>.cls-1{fill:#fff;}</style></defs><g id="Layer_2" data-name="Layer 2"><g id="Layer_1-2" data-name="Layer 1"><path class="cls-1" d="M0,40.75A47.16,47.16,0,0,1,2.75,24.32a39.39,39.39,0,0,1,7.64-12.89A34.2,34.2,0,0,1,36.26,0,33.81,33.81,0,0,1,62.13,11.49a40.33,40.33,0,0,1,7.64,12.88,46.43,46.43,0,0,1,2.74,16.28,47.87,47.87,0,0,1-2.69,16.43A38.54,38.54,0,0,1,62.18,70,34.15,34.15,0,0,1,36.26,81.3a34.94,34.94,0,0,1-14.39-2.94A34.44,34.44,0,0,1,10.34,70,38.21,38.21,0,0,1,2.7,57.08,47.54,47.54,0,0,1,0,40.75Zm16,0a27.53,27.53,0,0,0,1.55,9.39,22.45,22.45,0,0,0,4.29,7.39,19.28,19.28,0,0,0,6.45,4.79,19.63,19.63,0,0,0,16,0,19.34,19.34,0,0,0,6.44-4.79A22.29,22.29,0,0,0,55,50.09a27.45,27.45,0,0,0,1.55-9.34A27.29,27.29,0,0,0,55,31.36a24.16,24.16,0,0,0-4.24-7.49A17.6,17.6,0,0,0,44.3,19a20.41,20.41,0,0,0-16.08,0,17.55,17.55,0,0,0-6.45,4.84,24.36,24.36,0,0,0-4.24,7.49A27.53,27.53,0,0,0,16,40.75Z"/><path class="cls-1" d="M173.34,80.05H103.43V64.87l40.35-29.06L143.68,46,103.43,16.83v-15h69.91V18.33H151q-8.59,0-15.83-.4a139.72,139.72,0,0,1-14.63-1.6l5.49-1.7,30.36,23.18V44.4L125.9,67.47l-5.39-1.9A132.3,132.3,0,0,1,134.89,64q7.19-.39,16.08-.4h22.37Z"/><path class="cls-1" d="M275.17,40.15a50.41,50.41,0,0,1-2.45,16,36.21,36.21,0,0,1-7.09,12.64,31.76,31.76,0,0,1-11.43,8.24A38.15,38.15,0,0,1,238.91,80a33.13,33.13,0,0,1-14.33-3.09,35,35,0,0,1-11.44-8.69A40.2,40.2,0,0,1,205.55,55a49.79,49.79,0,0,1-2.69-16.63,50.35,50.35,0,0,1,1.59-13,46.6,46.6,0,0,1,4.2-10.59,31.46,31.46,0,0,1,5.79-7.64l11.19,10.29a36.55,36.55,0,0,0-4,6,35,35,0,0,0-2.74,6.94,30.08,30.08,0,0,0-1,8.14,27,27,0,0,0,1.6,9.44,23.66,23.66,0,0,0,4.44,7.59,19.66,19.66,0,0,0,6.69,5,20,20,0,0,0,8.34,1.75,21.49,21.49,0,0,0,9.29-1.9,18.57,18.57,0,0,0,6.64-5.2,22.78,22.78,0,0,0,4-7.59,30.44,30.44,0,0,0,1.35-9.19,31,31,0,0,0-1-8,22.45,22.45,0,0,0-2.75-6.44,13.87,13.87,0,0,0-4.14-4.24,9.5,9.5,0,0,0-5.3-1.55h-2.19l3.79-2.3V39.85H235.52V2c.86-.13,1.9-.24,3.09-.3s2.32-.12,3.35-.15l2.15-.05a29.62,29.62,0,0,1,13.08,2.8,26.77,26.77,0,0,1,9.74,7.94A37.79,37.79,0,0,1,273,24.47,54,54,0,0,1,275.17,40.15Z"/></g></g></svg>