<svg xmlns="http://www.w3.org/2000/svg" viewBox="0 0 275 36.03"><defs><style>.cls-1{fill:#ee4872;}</style></defs><g id="Layer_2" data-name="Layer 2"><g id="Layer_1-2" data-name="Layer 1"><path class="cls-1" d="M11.5,28.38a13.74,13.74,0,0,1-5.94-1.23,9.88,9.88,0,0,1-4.08-3.41A8.52,8.52,0,0,1,0,18.79a8.51,8.51,0,0,1,1.48-5,9.92,9.92,0,0,1,4.08-3.39A13.74,13.74,0,0,1,11.5,9.21a13.66,13.66,0,0,1,6,1.23,10,10,0,0,1,4.05,3.39,8.58,8.58,0,0,1,1.48,5,8.6,8.6,0,0,1-1.48,4.95,9.92,9.92,0,0,1-4.05,3.41A13.66,13.66,0,0,1,11.5,28.38Zm0-4.79a7,7,0,0,0,3-.61,5.24,5.24,0,0,0,2.12-1.68,4,4,0,0,0,.75-2.51,4.07,4.07,0,0,0-.75-2.51,5.22,5.22,0,0,0-2.12-1.71,7.16,7.16,0,0,0-3-.6,7.37,7.37,0,0,0-3,.6,5.1,5.1,0,0,0-2.12,1.71,4.28,4.28,0,0,0-.76,2.51,4.23,4.23,0,0,0,.76,2.51A5.11,5.11,0,0,0,8.51,23,7.21,7.21,0,0,0,11.53,23.59Z"/><path class="cls-1" d="M31,28V9.59h5.28l.17,4.1-1.11-.35a6.75,6.75,0,0,1,1.25-1.56,9.08,9.08,0,0,1,1.79-1.31,9.72,9.72,0,0,1,4.84-1.23,9.1,9.1,0,0,1,2.91.45,5.1,5.1,0,0,1,2.27,1.53,6.79,6.79,0,0,1,1.39,2.85l-1.25-.14.28-.56a8,8,0,0,1,1.39-1.56,9.7,9.7,0,0,1,1.89-1.3,11.45,11.45,0,0,1,2.28-.92,9.33,9.33,0,0,1,2.57-.35,8.42,8.42,0,0,1,4.34,1A5.85,5.85,0,0,1,63.71,13a9.92,9.92,0,0,1,.77,4V28h-5.6V17.61a4.78,4.78,0,0,0-.36-1.93,2.86,2.86,0,0,0-1.13-1.28,3.63,3.63,0,0,0-1.91-.47,5.48,5.48,0,0,0-3.56,1.27,4,4,0,0,0-1,1.34,3.79,3.79,0,0,0-.37,1.7V28H44.92V17.58a4.16,4.16,0,0,0-.42-1.91,2.88,2.88,0,0,0-1.29-1.29A4.67,4.67,0,0,0,41,13.93a4.37,4.37,0,0,0-1.81.37,4.6,4.6,0,0,0-1.42.93,4.25,4.25,0,0,0-.91,1.25,3.12,3.12,0,0,0-.31,1.31V28Z"/><path class="cls-1" d="M84,36a19.31,19.31,0,0,1-5.35-.7,14.36,14.36,0,0,1-3.89-1.67l1.87-4c.54.25,1.13.51,1.78.78a13.5,13.5,0,0,0,2.19.68,12.47,12.47,0,0,0,2.71.28,6.7,6.7,0,0,0,3-.65,4.48,4.48,0,0,0,2-1.84,6,6,0,0,0,.68-3V23.55l1,.18a3.68,3.68,0,0,1-1.42,2.06,9,9,0,0,1-3,1.53,12.13,12.13,0,0,1-3.82.58,10.58,10.58,0,0,1-5-1.15,8.2,8.2,0,0,1-3.37-3.23,9.44,9.44,0,0,1-1.2-4.79,9.69,9.69,0,0,1,1.25-5A9,9,0,0,1,77,10.42a10.38,10.38,0,0,1,5.09-1.21,11.18,11.18,0,0,1,2,.19,12.31,12.31,0,0,1,2.12.57,13.82,13.82,0,0,1,1.94.9,5.47,5.47,0,0,1,1.48,1.2,2.39,2.39,0,0,1,.61,1.41l-1.15.28.25-4.17H94.6V25.78a11.4,11.4,0,0,1-.82,4.43,9,9,0,0,1-2.26,3.23,9.33,9.33,0,0,1-3.39,1.94A13,13,0,0,1,84,36Zm-.38-12.44A6.57,6.57,0,0,0,86.54,23a4.49,4.49,0,0,0,1.92-1.7,4.62,4.62,0,0,0,.68-2.52,4.78,4.78,0,0,0-.66-2.54,4.66,4.66,0,0,0-1.91-1.7,6.48,6.48,0,0,0-2.95-.62,6.91,6.91,0,0,0-3,.62,5,5,0,0,0-2,1.7,4.41,4.41,0,0,0-.73,2.54,4.41,4.41,0,0,0,.73,2.52,4.73,4.73,0,0,0,2,1.7A7.05,7.05,0,0,0,83.62,23.59Z"/><path class="cls-1" d="M104.6,28V9.59h5.28l.24,6.53-1.42-.49a8.71,8.71,0,0,1,1.65-3.25,9.18,9.18,0,0,1,2.74-2.31,6.9,6.9,0,0,1,3.32-.86,9.36,9.36,0,0,1,1.93.2,7.68,7.68,0,0,1,1.58.53l-1.53,6a4.37,4.37,0,0,0-1.58-.64,8.81,8.81,0,0,0-2-.23,5.25,5.25,0,0,0-2,.35,4.4,4.4,0,0,0-1.45.95,4.23,4.23,0,0,0-.93,1.36,4.31,4.31,0,0,0-.31,1.61V28Z"/><path class="cls-1" d="M134,28.35a9.79,9.79,0,0,1-5-1.24,8.82,8.82,0,0,1-3.37-3.38,9.81,9.81,0,0,1-1.22-4.9,9.85,9.85,0,0,1,1.24-5,8.88,8.88,0,0,1,3.4-3.4,10.15,10.15,0,0,1,5.09-1.23,10.76,10.76,0,0,1,3,.41,10.16,10.16,0,0,1,2.47,1.1,6.89,6.89,0,0,1,1.75,1.51,3.85,3.85,0,0,1,.85,1.67l-1.28.07V9.59h5.52V28h-5.63V23.21l1.18.24a3.76,3.76,0,0,1-.83,1.77,7.39,7.39,0,0,1-1.77,1.58,9.18,9.18,0,0,1-2.47,1.13A10.11,10.11,0,0,1,134,28.35Zm1.46-4.69a6.58,6.58,0,0,0,3-.61,4.58,4.58,0,0,0,1.91-1.7,4.71,4.71,0,0,0,.68-2.52,4.74,4.74,0,0,0-.68-2.57,4.65,4.65,0,0,0-1.91-1.7,6.45,6.45,0,0,0-3-.63,6.29,6.29,0,0,0-2.9.63,4.77,4.77,0,0,0-1.93,1.7,4.66,4.66,0,0,0-.69,2.57,4.63,4.63,0,0,0,.69,2.52,4.7,4.7,0,0,0,1.93,1.7A6.42,6.42,0,0,0,135.45,23.66Z"/><path class="cls-1" d="M156.53,35.68V9.55h5.29l.24,4.17L161,13.41a3.7,3.7,0,0,1,1.39-2,9.31,9.31,0,0,1,2.85-1.55,10.87,10.87,0,0,1,3.72-.61,9.88,9.88,0,0,1,5,1.22,8.7,8.7,0,0,1,3.35,3.35,9.8,9.8,0,0,1,1.22,5,9.82,9.82,0,0,1-1.23,5,8.78,8.78,0,0,1-3.39,3.37,10,10,0,0,1-5,1.22,10.93,10.93,0,0,1-3.77-.63,8.28,8.28,0,0,1-2.84-1.65,4.3,4.3,0,0,1-1.41-2.1l1.28-.49v12.2Zm11-12a6.54,6.54,0,0,0,2.92-.61,4.58,4.58,0,0,0,1.93-1.7,4.77,4.77,0,0,0,.68-2.56,4.76,4.76,0,0,0-.68-2.55,4.52,4.52,0,0,0-1.91-1.7,7.26,7.26,0,0,0-5.87,0,4.45,4.45,0,0,0-1.93,1.72,4.77,4.77,0,0,0-.66,2.51,4.85,4.85,0,0,0,.66,2.56,4.41,4.41,0,0,0,1.93,1.7A6.61,6.61,0,0,0,167.51,23.66Z"/><path class="cls-1" d="M186.69,28V2.33h5.49V14.1l-1.43.49a5.73,5.73,0,0,1,1.51-2.66,9.15,9.15,0,0,1,2.89-2,9,9,0,0,1,3.7-.76,8.1,8.1,0,0,1,4.17,1,6.51,6.51,0,0,1,2.53,2.72,8.82,8.82,0,0,1,.87,4V28h-5.56V17.93a4.49,4.49,0,0,0-.5-2.19A3.38,3.38,0,0,0,199,14.37a4.77,4.77,0,0,0-2.15-.51,4.85,4.85,0,0,0-1.83.35,4.53,4.53,0,0,0-1.46.94,4.09,4.09,0,0,0-.92,1.32,4,4,0,0,0-.31,1.56V28h-5.59Z"/><path class="cls-1" d="M219.55,5.73A3.66,3.66,0,0,1,217.12,5a2.68,2.68,0,0,1-.87-2.14,2.66,2.66,0,0,1,.87-2,3.47,3.47,0,0,1,2.43-.8A3.68,3.68,0,0,1,222,.75a2.61,2.61,0,0,1,.89,2.1A2.61,2.61,0,0,1,222,4.93,3.49,3.49,0,0,1,219.55,5.73ZM216.77,28V9.59h5.6V28Z"/><path class="cls-1" d="M241.75,28.38a12.33,12.33,0,0,1-5.65-1.25,9.74,9.74,0,0,1-3.89-3.42,8.92,8.92,0,0,1-1.4-4.92,8.88,8.88,0,0,1,1.4-4.93,9.91,9.91,0,0,1,3.84-3.4,11.85,11.85,0,0,1,5.53-1.25,16.16,16.16,0,0,1,5.31.83,10.41,10.41,0,0,1,4,2.4l-3,3.89a7.46,7.46,0,0,0-1.63-1.15,10.92,10.92,0,0,0-2-.83A7.71,7.71,0,0,0,242,14a6.75,6.75,0,0,0-2.93.61,4.59,4.59,0,0,0-1.95,1.67,4.54,4.54,0,0,0-.67,2.48,4.48,4.48,0,0,0,.69,2.45,4.55,4.55,0,0,0,2,1.69,6.78,6.78,0,0,0,2.91.59,10.46,10.46,0,0,0,2.43-.26,9.5,9.5,0,0,0,2-.7,10,10,0,0,0,1.53-.92l3,3.86a15,15,0,0,1-4,2.07A15.68,15.68,0,0,1,241.75,28.38Z"/><path class="cls-1" d="M266,28.38a17.71,17.71,0,0,1-5.77-.87,9.79,9.79,0,0,1-4.1-2.53l3.41-3a8.06,8.06,0,0,0,2.93,1.72,11.33,11.33,0,0,0,3.77.61,12.12,12.12,0,0,0,1.22-.07,3.84,3.84,0,0,0,1.06-.28,2.29,2.29,0,0,0,.73-.5,1,1,0,0,0,.26-.68c0-.46-.32-.82-.94-1.08a11.52,11.52,0,0,0-1.6-.4l-2.15-.4a35.1,35.1,0,0,1-3.58-.83,7.8,7.8,0,0,1-2.54-1.22,5.36,5.36,0,0,1-1.44-1.66,4.8,4.8,0,0,1-.5-2.26,4.11,4.11,0,0,1,.71-2.4,6.32,6.32,0,0,1,1.95-1.81,9.59,9.59,0,0,1,2.83-1.14,14.29,14.29,0,0,1,3.4-.38,18.06,18.06,0,0,1,3.37.31,16.39,16.39,0,0,1,3.2.94A10.42,10.42,0,0,1,274.89,12L272,15.39a10.45,10.45,0,0,0-1.89-1.09,11.85,11.85,0,0,0-2.33-.8,10.33,10.33,0,0,0-2.45-.3,9.07,9.07,0,0,0-1.21.07,5.35,5.35,0,0,0-1,.24,2,2,0,0,0-.73.46.93.93,0,0,0-.26.66.91.91,0,0,0,.18.53,1.42,1.42,0,0,0,.52.47,6,6,0,0,0,1.58.58c.7.17,1.54.35,2.52.53a22.43,22.43,0,0,1,4,1,8.76,8.76,0,0,1,2.57,1.35,3.6,3.6,0,0,1,1.18,1.43,4.48,4.48,0,0,1,.35,1.8,4.82,4.82,0,0,1-1.15,3.18,7.36,7.36,0,0,1-3.18,2.14A13.18,13.18,0,0,1,266,28.38Z"/></g></g></svg>