<svg xmlns="http://www.w3.org/2000/svg" xmlns:xlink="http://www.w3.org/1999/xlink" viewBox="0 0 601.54 112.4"><defs><style>.cls-1{fill:#fff;}.cls-10,.cls-11,.cls-2,.cls-3,.cls-4,.cls-5,.cls-6,.cls-7,.cls-8,.cls-9{fill:none;stroke-miterlimit:10;stroke-width:1.42px;}.cls-2{stroke:url(#linear-gradient);}.cls-3{stroke:url(#linear-gradient-2);}.cls-4{stroke:url(#linear-gradient-3);}.cls-5{stroke:url(#linear-gradient-4);}.cls-6{stroke:url(#linear-gradient-5);}.cls-7{stroke:url(#linear-gradient-6);}.cls-8{stroke:url(#linear-gradient-7);}.cls-9{stroke:url(#linear-gradient-8);}.cls-10{stroke:url(#linear-gradient-9);}.cls-11{stroke:url(#linear-gradient-10);}</style><linearGradient id="linear-gradient" y1="1447.38" x2="50.32" y2="1447.38" gradientTransform="matrix(1, 0, 0, -0.99, 0, 1515.03)" gradientUnits="userSpaceOnUse"><stop offset="0.01" stop-color="#fff"/><stop offset="0.12" stop-color="#fbfbfb"/><stop offset="0.23" stop-color="#f0f0f0"/><stop offset="0.34" stop-color="#ddd"/><stop offset="0.44" stop-color="#c2c2c2"/><stop offset="0.55" stop-color="#a0a0a0"/><stop offset="0.65" stop-color="#767676"/><stop offset="0.75" stop-color="#444"/><stop offset="0.85" stop-color="#0b0b0b"/><stop offset="0.87"/></linearGradient><linearGradient id="linear-gradient-2" x1="62.64" y1="1447.38" x2="107.93" y2="1447.38" xlink:href="#linear-gradient"/><linearGradient id="linear-gradient-3" x1="122.24" y1="1447.38" x2="164.05" y2="1447.38" xlink:href="#linear-gradient"/><linearGradient id="linear-gradient-4" x1="178.58" y1="1447.38" x2="223.86" y2="1447.38" xlink:href="#linear-gradient"/><linearGradient id="linear-gradient-5" x1="237.54" y1="1447.38" x2="287.86" y2="1447.38" xlink:href="#linear-gradient"/><linearGradient id="linear-gradient-6" x1="304.05" y1="1447.38" x2="349.33" y2="1447.38" xlink:href="#linear-gradient"/><linearGradient id="linear-gradient-7" x1="363.64" y1="1447.38" x2="418" y2="1447.38" xlink:href="#linear-gradient"/><linearGradient id="linear-gradient-8" x1="431.6" y1="1447.03" x2="485.04" y2="1447.03" xlink:href="#linear-gradient"/><linearGradient id="linear-gradient-9" x1="496.52" y1="1447.38" x2="541.8" y2="1447.38" xlink:href="#linear-gradient"/><linearGradient id="linear-gradient-10" x1="549.85" y1="1447.03" x2="601.54" y2="1447.03" xlink:href="#linear-gradient"/></defs><g id="Layer_2" data-name="Layer 2"><g id="Layer_1-2" data-name="Layer 1"><path class="cls-1" d="M49,51,36.62,32.87l.66-.31A16.35,16.35,0,0,0,46.42,17.5a15.82,15.82,0,0,0-2.27-8.57,14.58,14.58,0,0,0-6.63-5.56A25.81,25.81,0,0,0,26.93,1.42H.71V51H15V34.72h5.79L31.75,51ZM15,13.46H25.16a8.38,8.38,0,0,1,3.22.57,4.78,4.78,0,0,1,2.16,1.7,5,5,0,0,1,.78,2.91,5.34,5.34,0,0,1-.78,3,5.15,5.15,0,0,1-2.05,1.85,6.83,6.83,0,0,1-3,.63H15Z"/><polygon class="cls-1" points="78.02 38.62 78.02 31.75 103.32 31.75 103.32 20.13 78.02 20.13 78.02 13.82 105.94 13.82 105.94 1.42 63.35 1.42 63.35 51.02 107.22 51.02 107.22 38.62 78.02 38.62"/><polygon class="cls-1" points="163.34 14.46 163.34 1.42 138.26 1.42 130.32 1.42 122.95 1.42 122.95 51.02 138.26 51.02 138.26 34.02 160.72 34.02 160.72 21.97 138.26 21.97 138.26 14.46 163.34 14.46"/><polygon class="cls-1" points="193.96 38.62 193.96 31.75 219.26 31.75 219.26 20.13 193.96 20.13 193.96 13.82 221.88 13.82 221.88 1.42 179.29 1.42 179.29 51.02 223.16 51.02 223.16 38.62 193.96 38.62"/><path class="cls-1" d="M260.93,1.42a25.89,25.89,0,0,0-10.6,2,14.6,14.6,0,0,0-6.62,5.56,15.73,15.73,0,0,0-2.27,8.57,16.53,16.53,0,0,0,2.44,9,16.65,16.65,0,0,0,6.7,6.06l.66.31L238.89,51h17.22L267,34.72h5.79V51h14.32V1.42Zm11.9,22.67H262.41a6.79,6.79,0,0,1-3-.63,5.17,5.17,0,0,1-2.06-1.85,5.34,5.34,0,0,1-.78-3,5,5,0,0,1,.78-2.91,4.78,4.78,0,0,1,2.16-1.7,8.47,8.47,0,0,1,3.23-.57h10.13Z"/><polygon class="cls-1" points="319.42 38.62 319.42 31.75 344.72 31.75 344.72 20.13 319.42 20.13 319.42 13.82 347.35 13.82 347.35 1.42 304.75 1.42 304.75 51.02 348.62 51.02 348.62 38.62 319.42 38.62"/><path class="cls-1" d="M402.55,1.42V15c0,1.28,0,2.51.1,3.69s.17,2.42.29,3.72l.39,4.25c.08.86.18,1.81.31,2.82l-25.19-28h-14.1V51h14.74V37.49c0-2.22,0-4.16,0-5.81s-.09-3.1-.18-4.33S378.69,25,378.6,24c0-.26-.07-.49-.1-.75L403.05,51h14.24V1.42Z"/><path class="cls-1" d="M462.29,51.73a37,37,0,0,1-11.91-1.84,28.61,28.61,0,0,1-9.53-5.32,24.15,24.15,0,0,1-6.31-8.22,24.43,24.43,0,0,1-2.23-10.48,24,24,0,0,1,2.27-10.49,24.66,24.66,0,0,1,6.31-8.22,28.13,28.13,0,0,1,9.49-5.32,37.21,37.21,0,0,1,12-1.84,37.71,37.71,0,0,1,8,.85,32.85,32.85,0,0,1,7.37,2.52,27.58,27.58,0,0,1,6.13,4L475,18.71a16.69,16.69,0,0,0-3.15-2.41,17.55,17.55,0,0,0-4.36-1.84,20.62,20.62,0,0,0-5.74-.71,16.63,16.63,0,0,0-5.07.78,14,14,0,0,0-4.39,2.3,11.25,11.25,0,0,0-3.12,3.83A11.8,11.8,0,0,0,448,26.08a10.73,10.73,0,0,0,1.21,5.1A11,11,0,0,0,452.62,35a15.54,15.54,0,0,0,4.92,2.34,21.53,21.53,0,0,0,5.88.78,16.79,16.79,0,0,0,5.67-.89,19.69,19.69,0,0,0,4.43-2.2c1.3-.87,2.42-1.69,3.37-2.44l7.23,11.55a25.93,25.93,0,0,1-5.46,3.58A39.2,39.2,0,0,1,471,50.6,33.81,33.81,0,0,1,462.29,51.73Z"/><polygon class="cls-1" points="511.89 38.62 511.89 31.75 537.19 31.75 537.19 20.13 511.89 20.13 511.89 13.82 539.82 13.82 539.82 1.42 497.23 1.42 497.23 51.02 541.09 51.02 541.09 38.62 511.89 38.62"/><path class="cls-1" d="M577.59,51.73a48.25,48.25,0,0,1-11.06-1.17,40.69,40.69,0,0,1-8.82-3.08,39.4,39.4,0,0,1-6.91-4.32L558,32a31.72,31.72,0,0,0,10.73,5.64,36.72,36.72,0,0,0,9.75,1.52,21.63,21.63,0,0,0,2.94-.21,7.52,7.52,0,0,0,2.59-.82,2.08,2.08,0,0,0,1.06-1.95,1.94,1.94,0,0,0-.57-1.42,5.17,5.17,0,0,0-1.59-1,12.44,12.44,0,0,0-2.41-.67c-.92-.17-2-.32-3.12-.46l-3.72-.43a44,44,0,0,1-8.47-1.91,22.64,22.64,0,0,1-6.31-3.22A13.49,13.49,0,0,1,555,22.54a13,13,0,0,1-1.35-6,13.34,13.34,0,0,1,1.85-7,15.93,15.93,0,0,1,5.13-5.21,25.81,25.81,0,0,1,7.52-3.22,35.48,35.48,0,0,1,9-1.1,43.14,43.14,0,0,1,9.71,1,28.5,28.5,0,0,1,7.12,2.58A26.4,26.4,0,0,1,599,7l-7.44,9.56a24.63,24.63,0,0,0-4.47-2.09A30.68,30.68,0,0,0,582,13.15a28.88,28.88,0,0,0-8.86-.22,7.3,7.3,0,0,0-2.66.85,1.93,1.93,0,0,0-1,1.74,1.88,1.88,0,0,0,1.13,1.63,10,10,0,0,0,2.8,1,29.17,29.17,0,0,0,3.37.53l2.83.32a75,75,0,0,1,7.94,1.38,27.12,27.12,0,0,1,6.84,2.55,12.38,12.38,0,0,1,4.71,4.54,14.41,14.41,0,0,1,1.7,7.41,13.94,13.94,0,0,1-3.12,9.21,19.36,19.36,0,0,1-8.36,5.7A33.58,33.58,0,0,1,577.59,51.73Z"/><path class="cls-2" d="M49,62.09,36.62,79.73l.66.3A16.51,16.51,0,0,1,44,85.92a15.81,15.81,0,0,1,2.45,8.75A15,15,0,0,1,44.15,103a14.54,14.54,0,0,1-6.63,5.41,26.53,26.53,0,0,1-10.59,1.89H.71V62.09H15V77.93h5.79L31.75,62.09ZM15,98.6H25.16a8.79,8.79,0,0,0,3.22-.55,4.45,4.45,0,0,0,2.94-4.48,5.09,5.09,0,0,0-.78-2.89,5,5,0,0,0-2.05-1.79,6.83,6.83,0,0,0-3-.62H15Z"/><polygon class="cls-3" points="78.02 74.14 78.02 80.83 103.32 80.83 103.32 92.12 78.02 92.12 78.02 98.25 105.94 98.25 105.94 110.31 63.35 110.31 63.35 62.09 107.22 62.09 107.22 74.14 78.02 74.14"/><polygon class="cls-4" points="163.34 97.63 163.34 110.31 138.26 110.31 130.32 110.31 122.95 110.31 122.95 62.09 138.26 62.09 138.26 78.62 160.72 78.62 160.72 90.33 138.26 90.33 138.26 97.63 163.34 97.63"/><polygon class="cls-5" points="193.96 74.14 193.96 80.83 219.26 80.83 219.26 92.12 193.96 92.12 193.96 98.25 221.88 98.25 221.88 110.31 179.29 110.31 179.29 62.09 223.16 62.09 223.16 74.14 193.96 74.14"/><path class="cls-6" d="M260.93,110.31a26.62,26.62,0,0,1-10.6-1.89,14.57,14.57,0,0,1-6.62-5.41,15,15,0,0,1-2.27-8.34,15.8,15.8,0,0,1,2.44-8.75,16.54,16.54,0,0,1,6.7-5.89l.66-.3L238.89,62.09h17.22L267,77.93h5.79V62.09h14.32v48.22Zm11.9-22H262.41a6.79,6.79,0,0,0-3,.62,5,5,0,0,0-2.06,1.79,5.09,5.09,0,0,0-.78,2.89,4.45,4.45,0,0,0,2.94,4.48,8.88,8.88,0,0,0,3.23.55h10.13Z"/><polygon class="cls-7" points="319.42 74.14 319.42 80.83 344.72 80.83 344.72 92.12 319.42 92.12 319.42 98.25 347.35 98.25 347.35 110.31 304.75 110.31 304.75 62.09 348.62 62.09 348.62 74.14 319.42 74.14"/><path class="cls-8" d="M402.55,110.31V97.15c0-1.24,0-2.43.1-3.58s.17-2.35.29-3.62.25-2.64.39-4.13c.08-.84.18-1.76.31-2.74l-25.19,27.23h-14.1V62.09h14.74V75.25c0,2.15,0,4,0,5.64s-.09,3-.18,4.21-.19,2.28-.28,3.27c0,.25-.07.48-.1.72l24.55-27h14.24v48.22Z"/><path class="cls-9" d="M462.29,61.4a38.13,38.13,0,0,0-11.91,1.79,28.84,28.84,0,0,0-9.53,5.17,23.63,23.63,0,0,0-6.31,8,23.17,23.17,0,0,0-2.23,10.19,22.86,22.86,0,0,0,2.27,10.2,24.23,24.23,0,0,0,6.31,8,28.52,28.52,0,0,0,9.49,5.17,38.35,38.35,0,0,0,12,1.79,39,39,0,0,0,8-.83,33.74,33.74,0,0,0,7.37-2.44,27.62,27.62,0,0,0,6.13-3.9L475,93.5a16.12,16.12,0,0,1-3.15,2.34,17.9,17.9,0,0,1-4.36,1.79,21.44,21.44,0,0,1-5.74.69,17.24,17.24,0,0,1-5.07-.75,14.46,14.46,0,0,1-4.39-2.24,11.05,11.05,0,0,1-3.12-3.72A11.25,11.25,0,0,1,448,86.34a10.2,10.2,0,0,1,1.21-5,10.77,10.77,0,0,1,3.37-3.72,15.87,15.87,0,0,1,4.92-2.28,22.34,22.34,0,0,1,5.88-.76,17.06,17.06,0,0,1,5.67.87,20,20,0,0,1,4.43,2.13c1.3.85,2.42,1.64,3.37,2.38l7.23-11.23a25.93,25.93,0,0,0-5.46-3.48A39.17,39.17,0,0,0,471,62.5,34.68,34.68,0,0,0,462.29,61.4Z"/><polygon class="cls-10" points="511.89 74.14 511.89 80.83 537.19 80.83 537.19 92.12 511.89 92.12 511.89 98.25 539.82 98.25 539.82 110.31 497.23 110.31 497.23 62.09 541.09 62.09 541.09 74.14 511.89 74.14"/><path class="cls-11" d="M577.59,61.4a50.09,50.09,0,0,0-11.06,1.13,41.81,41.81,0,0,0-8.82,3,39.06,39.06,0,0,0-6.91,4.2L558,80.55a32.08,32.08,0,0,1,10.73-5.48,37.36,37.36,0,0,1,9.75-1.48,21.63,21.63,0,0,1,2.94.21,7.52,7.52,0,0,1,2.59.79,2,2,0,0,1,1.06,1.9,1.83,1.83,0,0,1-.57,1.37,5,5,0,0,1-1.59,1,12.49,12.49,0,0,1-2.41.65q-1.38.24-3.12.45c-1.16.14-2.4.28-3.72.41a46.51,46.51,0,0,0-8.47,1.86,22.82,22.82,0,0,0-6.31,3.14A13.1,13.1,0,0,0,555,89.78a12.33,12.33,0,0,0-1.35,5.86,12.68,12.68,0,0,0,1.85,6.78,15.64,15.64,0,0,0,5.13,5.07,26.23,26.23,0,0,0,7.52,3.13,36.42,36.42,0,0,0,9,1.07,44.48,44.48,0,0,0,9.71-.93,28.92,28.92,0,0,0,7.12-2.52,26.24,26.24,0,0,0,5.07-3.37l-7.44-9.3a24.55,24.55,0,0,1-4.47,2A32.7,32.7,0,0,1,582,98.91a28.86,28.86,0,0,1-4.93.45,28,28,0,0,1-3.93-.24,7.52,7.52,0,0,1-2.66-.83,1.85,1.85,0,0,1-1-1.69A1.82,1.82,0,0,1,570.64,95a10,10,0,0,1,2.8-1,31.47,31.47,0,0,1,3.37-.51l2.83-.31a77.73,77.73,0,0,0,7.94-1.35,26.69,26.69,0,0,0,6.84-2.48A12.14,12.14,0,0,0,599.13,85a13.7,13.7,0,0,0,1.7-7.2,13.3,13.3,0,0,0-3.12-9,19.37,19.37,0,0,0-8.36-5.55A34.54,34.54,0,0,0,577.59,61.4Z"/></g></g></svg>